<svg xmlns="http://www.w3.org/2000/svg" xmlns:xlink="http://www.w3.org/1999/xlink" fill="none" version="1.1" width="110" height="30.6" viewBox="0 0 110 30.6"><defs><clipPath id=":Rl5:"><rect x="0" y="0" width="110" height="30.6" rx="0"></rect></clipPath></defs><g clip-path="url(#:Rl5:)"><g><g><path d="M12.0721,8.641568833618164C13.2199,8.123698833618164,14.0234,6.941418833618164,14.0234,5.564528833618164L14.0234,3.354338833618164C14.0234,1.500958833618164,12.5691,-0.0012111663818359375,10.7748,-0.0012111663818359375L3.24434,-0.0012111663818359375C2.64658,-0.0012111663818359375,2.16145,0.499883833618164,2.16145,1.117308833618164C2.16145,1.734728833618164,2.64658,2.235818833618164,3.24434,2.235818833618164L10.7748,2.235818833618164C11.3725,2.235818833618164,11.8576,2.736918833618164,11.8576,3.354338833618164L11.8576,5.564528833618164C11.8576,6.181948833618164,11.3725,6.683048833618164,10.7748,6.683048833618164L3.24867,6.683048833618164C1.45432,6.683048833618164,0,8.185208833618164,0,10.038588833618164L0,12.250988833618164C0,12.868488833618164,0.485135,13.369488833618163,1.08289,13.369488833618163C1.68065,13.369488833618163,2.16578,12.868488833618164,2.16578,12.250988833618164L2.16578,10.038588833618164C2.16578,9.421178833618164,2.65092,8.920078833618165,3.24867,8.920078833618165L9.70486,8.920078833618165L12.0222,12.878488833618164C12.332,13.407588833618163,12.9979,13.576488833618164,13.5091,13.256588833618164C14.0213,12.936688833618165,14.1848,12.248788833618164,13.8751,11.720888833618163L12.0721,8.641568833618164Z" fill="currentColor" fill-opacity="1"></path></g><g><path d="M7.016918125,5.014344771118164L7.016918125,3.907012771118164C7.016918125,3.443946771118164,6.653058125,3.068124771118164,6.204746125,3.068124771118164C5.756429125,3.068124771118164,5.392578125,3.443946771118164,5.392578125,3.907012771118164L5.392578125,5.014344771118164C5.392578125,5.477414771118164,5.756429125,5.853234771118164,6.204746125,5.853234771118164C6.653058125,5.853234771118164,7.016918125,5.477414771118164,7.016918125,5.014344771118164Z" fill="currentColor" fill-opacity="1"></path></g><g><path d="M10.25275796875,5.014344771118164L10.25275796875,3.907012771118164C10.25275796875,3.443946771118164,9.88889796875,3.068124771118164,9.44058596875,3.068124771118164C8.99226896875,3.068124771118164,8.62841796875,3.443946771118164,8.62841796875,3.907012771118164L8.62841796875,5.014344771118164C8.62841796875,5.477414771118164,8.99226896875,5.853234771118164,9.44058596875,5.853234771118164C9.88889796875,5.853234771118164,10.25275796875,5.477414771118164,10.25275796875,5.014344771118164Z" fill="currentColor" fill-opacity="1"></path></g><g><path d="M25.864638281250002,4.455087661743164L18.34290828125,4.455087661743164C16.55180828125,4.455087661743164,15.09423828125,5.960607661743164,15.09423828125,7.810637661743164L15.09423828125,10.019707661743164C15.09423828125,11.869737661743164,16.55180828125,13.375257661743165,18.34290828125,13.375257661743165L25.864638281250002,13.375257661743165C27.655738281250002,13.375257661743165,29.11333828125,11.869737661743164,29.11333828125,10.019707661743164L29.11333828125,7.810637661743164C29.11333828125,5.960607661743164,27.655738281250002,4.455087661743164,25.864638281250002,4.455087661743164ZM26.94753828125,10.019707661743164C26.94753828125,10.636007661743164,26.46133828125,11.138227661743164,25.864638281250002,11.138227661743164L18.34290828125,11.138227661743164C17.74623828125,11.138227661743164,17.260018281249998,10.636007661743164,17.260018281249998,10.019707661743164L17.260018281249998,7.810637661743164C17.260018281249998,7.194337661743164,17.74623828125,6.692117661743164,18.34290828125,6.692117661743164L25.864638281250002,6.692117661743164C26.46133828125,6.692117661743164,26.94753828125,7.194337661743164,26.94753828125,7.810637661743164L26.94753828125,10.019707661743164Z" fill="currentColor" fill-opacity="1"></path></g><g><path d="M40.9615359375,4.4547399273681645L35.5957959375,4.4547399273681645C34.9980359375,4.4547399273681645,34.5129059375,4.955829927368164,34.5129059375,5.573249927368164C34.5129059375,6.190679927368164,34.9980359375,6.691769927368164,35.5957959375,6.691769927368164L40.9615359375,6.691769927368164C41.5592359375,6.691769927368164,42.0444359375,7.192869927368164,42.0444359375,7.810289927368164L42.0444359375,10.019359927368164C42.0444359375,10.636759927368164,41.5592359375,11.137859927368163,40.9615359375,11.137859927368163L33.4430059375,11.137859927368163C32.8452559375,11.137859927368163,32.3601159375,10.636759927368164,32.3601159375,10.019359927368164L32.3601159375,1.122679927368164C32.3601159375,0.505255927368164,31.8749759375,0.0041599273681640625,31.2772259375,0.0041599273681640625C30.6794719375,0.0041599273681640625,30.1943359375,0.505255927368164,30.1943359375,1.122679927368164L30.1943359375,10.019359927368164C30.1943359375,11.872759927368165,31.6486559375,13.374859927368163,33.4430059375,13.374859927368163L40.9615359375,13.374859927368163C42.7558359375,13.374859927368163,44.2101359375,11.872759927368165,44.2101359375,10.019359927368164L44.2101359375,7.810289927368164C44.2101359375,5.956909927368164,42.7558359375,4.4547399273681645,40.9615359375,4.4547399273681645Z" fill="currentColor" fill-opacity="1"></path></g><g><path d="M56.06553984375,4.4547399273681645L50.69979984375,4.4547399273681645C50.10203984375,4.4547399273681645,49.61690984375,4.955829927368164,49.61690984375,5.573249927368164C49.61690984375,6.190679927368164,50.10203984375,6.691769927368164,50.69979984375,6.691769927368164L56.06553984375,6.691769927368164C56.66323984375,6.691769927368164,57.14843984375,7.192869927368164,57.14843984375,7.810289927368164L57.14843984375,10.019359927368164C57.14843984375,10.636759927368164,56.66323984375,11.137859927368163,56.06553984375,11.137859927368163L48.54700984375,11.137859927368163C47.94925984375,11.137859927368163,47.46411984375,10.636759927368164,47.46411984375,10.019359927368164L47.46411984375,1.122679927368164C47.46411984375,0.505255927368164,46.97897984375,0.0041599273681640625,46.38122984375,0.0041599273681640625C45.78347584375,0.0041599273681640625,45.29833984375,0.505255927368164,45.29833984375,1.122679927368164L45.29833984375,10.019359927368164C45.29833984375,11.872759927368165,46.75265984375,13.374859927368163,48.54700984375,13.374859927368163L56.06553984375,13.374859927368163C57.85983984375,13.374859927368163,59.31413984375,11.872759927368165,59.31413984375,10.019359927368164L59.31413984375,7.810289927368164C59.31413984375,5.956909927368164,57.85983984375,4.4547399273681645,56.06553984375,4.4547399273681645Z" fill="currentColor" fill-opacity="1"></path></g><g><path d="M71.1784484375,4.459482192993164C70.5807484375,4.459482192993164,70.0955984375,4.960577192993164,70.0955984375,5.578002192993164L70.0955984375,10.019632192993164C70.0955984375,10.637052192993163,69.6104584375,11.138142192993165,69.0127084375,11.138142192993165L63.6383184375,11.138142192993165C63.0405584375,11.138142192993165,62.5554284375,10.637052192993163,62.5554284375,10.019632192993164L62.5554284375,5.578002192993164C62.5554284375,4.9605781929931645,62.0702984375,4.459482619673164,61.4725384375,4.459482619673164C60.8747814375,4.459482619673164,60.3896484375,4.9605781929931645,60.3896484375,5.578002192993164L60.3896484375,10.019632192993164C60.3896484375,11.873012192993164,61.8439684375,13.375182192993163,63.6383184375,13.375182192993163L69.0127084375,13.375182192993163C69.3927984375,13.375182192993163,69.7566484375,13.306952192993164,70.0955984375,13.182792192993164L70.0955984375,14.474682192993164C70.0955984375,15.092082192993164,69.6104584375,15.593182192993163,69.0127084375,15.593182192993163L63.6339884375,15.593182192993163C63.0362284375,15.593182192993163,62.5510984375,16.094282192993163,62.5510984375,16.711682192993166C62.5510984375,17.329182192993166,63.0362284375,17.830182192993163,63.6339884375,17.830182192993163L69.0127084375,17.830182192993163C70.8070484375,17.830182192993163,72.2613484375,16.328082192993165,72.2613484375,14.474682192993164L72.2613484375,5.578002192993164C72.2613484375,4.960577192993164,71.7762484375,4.459482192993164,71.1784484375,4.459482192993164Z" fill="currentColor" fill-opacity="1"></path></g><g><path d="M84.1103671875,4.455087661743164L76.5875371875,4.455087661743164C74.7931871875,4.455087661743164,73.3388671875,5.957257661743164,73.3388671875,7.810637661743164L73.3388671875,10.019707661743164C73.3388671875,11.873087661743163,74.7931871875,13.375257661743165,76.5875371875,13.375257661743165L81.9575971875,13.375257661743165C82.5553471875,13.375257661743165,83.0404871875,12.874167661743163,83.0404871875,12.256737661743164C83.0404871875,11.639317661743164,82.5553471875,11.138227661743164,81.9575971875,11.138227661743164L76.5875371875,11.138227661743164C75.9897771875,11.138227661743164,75.5046471875,10.637127661743165,75.5046471875,10.019707661743164L75.5046471875,7.810637661743164C75.5046471875,7.193217661743164,75.9897771875,6.692117661743164,76.5875371875,6.692117661743164L84.1103671875,6.692117661743164C84.7081671875,6.692117661743164,85.1932671875,7.193217661743164,85.1932671875,7.810637661743164L85.1932671875,12.252267661743165C85.1932671875,12.869687661743164,85.6783671875,13.370787661743163,86.2761671875,13.370787661743163C86.8738671875,13.370787661743163,87.3590671875,12.869687661743164,87.3590671875,12.252267661743165L87.3590671875,7.810637661743164C87.3590671875,5.957257661743164,85.9047671875,4.455087661743164,84.1103671875,4.455087661743164Z" fill="currentColor" fill-opacity="1"></path></g><g><path d="M97.4838409375,4.455087661743164L91.2442209375,4.455087661743164C89.6892009375,4.455087661743164,88.4287109375,5.757037661743164,88.4287109375,7.363227661743164L88.4287109375,12.252267661743165C88.4287109375,12.869687661743164,88.9138439375,13.370787661743163,89.5116009375,13.370787661743163C90.1093609375,13.370787661743163,90.5944909375,12.869687661743164,90.5944909375,12.252267661743165L90.5944909375,7.363227661743164C90.5944909375,6.992997661743164,90.8857909375,6.692117661743164,91.2442209375,6.692117661743164L97.4838409375,6.692117661743164C97.8422709375,6.692117661743164,98.1335709375,6.992997661743164,98.1335709375,7.363227661743164L98.1335709375,12.252267661743165C98.1335709375,12.869687661743164,98.6187109375,13.370787661743163,99.2165109375,13.370787661743163C99.81421093750001,13.370787661743163,100.2993109375,12.869687661743164,100.2993109375,12.252267661743165L100.2993109375,7.363227661743164C100.2993109375,5.757037661743164,99.0389109375,4.455087661743164,97.4838409375,4.455087661743164Z" fill="currentColor" fill-opacity="1"></path></g><g><path d="M108.86832859375,11.137859927368163L106.77401859375,11.137859927368163C106.17625859375,11.137859927368163,105.69112859375,10.636759927368164,105.69112859375,10.019359927368164L105.69112859375,6.691769927368164L108.91705859375,6.691769927368164C109.51480859375,6.691769927368164,109.99994859375,6.190679927368164,109.99994859375,5.573249927368164C109.99994859375,4.955829927368164,109.51480859375,4.4547399273681645,108.91705859375,4.4547399273681645L105.69112859375,4.4547399273681645L105.69112859375,1.122679927368164C105.69112859375,0.505255927368164,105.20598859374999,0.0041599273681640625,104.60823859375,0.0041599273681640625C104.01047859375,0.0041599273681640625,103.52534859375,0.505255927368164,103.52534859375,1.122679927368164L103.52534859375,4.4547399273681645L102.45544859375,4.4547399273681645C101.85769159375,4.4547399273681645,101.37255859375,4.955829927368164,101.37255859375,5.573249927368164C101.37255859375,6.190679927368164,101.85769159375,6.691769927368164,102.45544859375,6.691769927368164L103.52534859375,6.691769927368164L103.52534859375,10.019359927368164C103.52534859375,11.872759927368165,104.97966859375,13.374859927368163,106.77401859375,13.374859927368163L108.86832859375,13.374859927368163C109.46608859375,13.374859927368163,109.95121859375,12.873859927368164,109.95121859375,12.256359927368164C109.95121859375,11.638959927368164,109.46608859375,11.137859927368163,108.86832859375,11.137859927368163Z" fill="currentColor" fill-opacity="1"></path></g></g></g></svg>